<?xml version="1.0" encoding="utf-8"?>
<!-- Generator: Adobe Illustrator 24.1.3, SVG Export Plug-In . SVG Version: 6.00 Build 0)  -->
<svg version="1.1" id="Layer_1" xmlns="http://www.w3.org/2000/svg" xmlns:xlink="http://www.w3.org/1999/xlink" x="0px" y="0px"
	 viewBox="0 0 56.7 56.7" style="enable-background:new 0 0 56.7 56.7;" xml:space="preserve">
<style type="text/css">
	.st0{fill-rule:evenodd;clip-rule:evenodd;}
</style>
<path class="st0" d="M55.8,22.6c-0.4-1.8-0.9-3.6-1.6-5.3c-0.7-1.7-1.6-3.3-2.6-4.8c-1-1.5-2.2-2.9-3.4-4.2C46.9,7.1,45.5,6,44,5
	c-1.5-1-3.1-1.9-4.8-2.6c-1.7-0.7-3.5-1.3-5.3-1.6c-1.8-0.4-3.8-0.6-5.7-0.6c-1.9,0-3.8,0.2-5.7,0.6c-1.8,0.4-3.6,0.9-5.3,1.6
	C15.7,3.1,14.1,4,12.6,5c-1.5,1-2.9,2.2-4.2,3.4C7.2,9.7,6,11.1,5,12.6c-1,1.5-1.9,3.1-2.6,4.8c-0.7,1.7-1.3,3.5-1.6,5.3
	c-0.4,1.8-0.6,3.8-0.6,5.7c0,1.9,0.2,3.8,0.6,5.7c0.4,1.8,0.9,3.6,1.6,5.3C3.1,40.9,4,42.5,5,44c1,1.5,2.2,2.9,3.4,4.2
	c1.3,1.3,2.7,2.4,4.2,3.4c1.5,1,3.1,1.9,4.8,2.6c1.7,0.7,3.5,1.3,5.3,1.6c1.9,0.4,3.8,0.6,5.7,0.6c1.9,0,3.8-0.2,5.7-0.6
	c1.8-0.4,3.6-0.9,5.3-1.6c1.7-0.7,3.3-1.6,4.8-2.6c1.5-1,2.9-2.2,4.2-3.4c1.3-1.3,2.4-2.7,3.4-4.2c1-1.5,1.9-3.1,2.6-4.8
	c0.7-1.7,1.3-3.5,1.6-5.3c0.4-1.8,0.6-3.8,0.6-5.7C56.4,26.4,56.2,24.5,55.8,22.6z M52.3,28c-0.3-0.1-8.5-1.8-16.7-0.8
	c-0.2-0.4-0.3-0.8-0.5-1.2c-0.5-1.2-1-2.3-1.6-3.5c9.5-3.9,13.3-9.4,13.4-9.5C50.2,17.1,52.2,22.3,52.3,28z M44.2,10.3
	c-0.1,0.1-3.5,5.3-12.5,8.7c-4.1-7.5-8.6-13.5-9-14c1.8-0.4,3.7-0.7,5.7-0.7C34.4,4.3,39.9,6.5,44.2,10.3z M22.6,5
	C22.6,5,22.5,5,22.6,5C22.5,5,22.5,5,22.6,5C22.5,5,22.5,5,22.6,5z M18.1,6.6C18.4,7,22.8,13,27,20.4c-11.5,3.1-21.5,2.9-22.2,2.9
	C6.4,15.9,11.4,9.7,18.1,6.6z M4.3,28.3c0-0.3,0-0.5,0-0.8c0.4,0,12.3,0.3,24.6-3.4c0.7,1.3,1.3,2.7,1.9,4.1
	c-0.3,0.1-0.6,0.2-0.9,0.3c-13,4.2-19.5,15.8-19.5,15.8s0,0,0,0C6.6,40.1,4.3,34.4,4.3,28.3z M28.3,52.3c-5.8,0-11.1-2.1-15.3-5.5
	c0.3,0.3,0.5,0.4,0.5,0.4s4.6-10,18.8-15c0.1,0,0.1,0,0.2-0.1c3.4,8.8,4.8,16.1,5.1,18.2C34.8,51.6,31.6,52.3,28.3,52.3z M41.7,48.2
	c-0.2-1.4-1.5-8.5-4.7-17.1c7.7-1.2,14.5,0.9,15,1C50.9,38.8,47.1,44.5,41.7,48.2z"/>
</svg>
