<?xml version="1.0" encoding="utf-8"?>
<!-- Generator: Adobe Illustrator 24.1.3, SVG Export Plug-In . SVG Version: 6.00 Build 0)  -->
<svg version="1.1" id="Layer_1" xmlns="http://www.w3.org/2000/svg" xmlns:xlink="http://www.w3.org/1999/xlink" x="0px" y="0px"
	 viewBox="0 0 56.7 56.7" style="enable-background:new 0 0 56.7 56.7;" xml:space="preserve">
<g>
	<path d="M28.4,13.9c-7.9,0-14.4,6.4-14.4,14.4s6.4,14.4,14.4,14.4s14.4-6.5,14.4-14.4S36.2,13.9,28.4,13.9z M28.4,37.5
		c-5.1,0-9.2-4.2-9.2-9.2s4.2-9.2,9.2-9.2s9.2,4.2,9.2,9.2S33.4,37.5,28.4,37.5z"/>
	<circle cx="43.3" cy="13.6" r="3.3"/>
	<path d="M51.7,5.2c-2.9-3-7.1-4.6-11.8-4.6H16.8C7,0.6,0.5,7.1,0.5,16.9v23c0,4.8,1.6,9,4.7,12c3,2.9,7.1,4.4,11.7,4.4h22.9
		c4.8,0,8.9-1.6,11.8-4.4c3-2.9,4.6-7.1,4.6-11.9V16.9C56.2,12.1,54.7,8.1,51.7,5.2z M51.3,40c0,3.5-1.2,6.3-3.3,8.2
		c-2,1.9-4.8,2.9-8.2,2.9H16.9c-3.4,0-6.2-1-8.2-2.9c-2-2-3-4.8-3-8.3v-23c0-3.4,1-6.2,3-8.2c1.9-1.9,4.8-2.9,8.2-2.9h23.2
		c3.4,0,6.2,1,8.2,3c1.9,2,3,4.8,3,8.1V40L51.3,40z"/>
</g>
</svg>
