<?xml version="1.0" encoding="utf-8"?>
<!-- Generator: Adobe Illustrator 25.0.0, SVG Export Plug-In . SVG Version: 6.00 Build 0)  -->
<svg version="1.1" xmlns="http://www.w3.org/2000/svg" xmlns:xlink="http://www.w3.org/1999/xlink" x="0px" y="0px"
	 viewBox="0 0 944.7 404" style="enable-background:new 0 0 944.7 404;" xml:space="preserve">
<style type="text/css">
	.st0{fill:none;stroke:#FFFFFF;stroke-width:4;stroke-miterlimit:10;}
	.st1{fill:#FFFFFF;}
</style>
<g id="Hintergrund">
</g>
<g id="Logo">
	<rect x="-1001.7" width="944.7" height="404"/>
	<path class="st0" d="M62.8,336.3c281.7-22.9,563.9-45.8,846.5-41.3c-293.8,8.6-586.9,38-876.6,87.8C85.8,365,141.5,356.1,197,348.3
		c227.7-31.8,457.9-45.5,687.8-41.1"/>
	<g>
		<path class="st1" d="M185,131c4.7,0,8.5,1.7,11.2,5c2.7,3.3,4.1,7.9,4.1,13.8c0,1.5-0.1,3-0.3,4.5c-0.2,1.6-0.5,2.9-0.8,4
			c-3.8-1-8-1.6-12.6-1.6c-1.1,7.9-4,16.3-8.7,25c-4.7,8.8-10.5,17-17.2,24.6c-6.7,7.7-14.1,14.4-22.1,20.2
			c-8,5.8-15.9,9.7-23.8,11.6c-24.4,0-42.2-6.1-53.4-18.2c-11.2-12.1-16.8-31-16.8-56.8c0-18.8,3.5-37,10.4-54.6
			C62,91.1,71.2,75.4,82.6,61.7c11.5-13.7,24.6-24.7,39.4-33c14.8-8.3,30.3-12.4,46.3-12.4c12.6,0,22.3,2.6,29.3,7.9
			c7,5.3,10.5,12.7,10.5,22.4c0,6.4-1.5,12.3-4.5,17.7c-3,5.5-8,11.4-14.9,17.7c-4.2-1.3-7.8-3.5-10.9-6.7c-3.1-3.2-5-6.9-5.7-11.1
			c6.2-4.5,10.6-8.7,13.1-12.6c2.5-3.8,3.8-8.4,3.8-13.6c0-8.4-5-12.6-15-12.6c-8.2,0-17,3.1-26.3,9.2c-9.4,6.1-18.8,14.9-28.3,26.4
			C106,77.4,96.2,94.1,90,111.3c-6.2,17.2-9.3,36.6-9.3,58.1c0,8,0.8,15.3,2.5,21.9c1.6,6.6,3.8,12.3,6.6,17.2
			c2.7,4.9,6,8.8,9.7,11.8c3.7,2.9,7.8,4.6,12.1,4.9c5.8-1.3,11.6-4.2,17.5-8.9c5.8-4.6,11.1-10.1,16-16.4c4.8-6.3,8.9-13,12.3-20.2
			c3.4-7.2,5.4-14.1,6.1-20.6c-5.1,1.1-10,2.1-14.6,3.1s-9.1,1.5-13.2,1.5c-5.5,0-10.2-1.4-14.3-4.1c-4.1-2.7-6.9-6.5-8.3-11.2
			c3.3-1.8,8.1-3.8,14.3-5.8c6.3-2,13-3.9,20.1-5.6c7.1-1.7,14.1-3.2,20.9-4.3C175,131.6,180.6,131,185,131z"/>
		<path class="st1" d="M249.9,157.2c1,0,2.2,0.2,3.5,0.5c1.3,0.4,2.6,0.8,3.7,1.3c1.1,0.6,2,1.1,2.8,1.7c0.8,0.6,1.1,1.2,1.1,1.6
			c-2,4.2-3.9,8.4-5.5,12.7c-1.7,4.3-3.1,8.3-4.3,12.2c-1.2,3.9-2.1,7.6-2.8,11c-0.7,3.4-1,6.4-1,8.8c0,2.8,0.3,5.1,0.9,7
			c0.6,1.9,1.6,3.2,3,4c-1.2,0.8-2.8,1.4-4.6,2c-1.9,0.5-3.6,0.8-5.1,0.8c-5.4,0-8.1-3.7-8.1-11.1c0-5.7,1.9-13.5,5.7-23.4
			c-2,4.6-4.3,8.9-6.9,12.9c-2.6,4-5.3,7.6-8,10.7c-2.7,3.1-5.4,5.6-8.2,7.5c-2.8,1.9-5.3,3.1-7.6,3.5c-3.7,0-6.7-1.7-9-5
			c-2.3-3.4-3.4-7.7-3.4-12.9c0-5.6,1.2-11.5,3.6-17.8c2.4-6.2,5.5-12,9.2-17.3c3.8-5.3,7.8-9.8,12.2-13.3c4.4-3.6,8.6-5.3,12.8-5.3
			c1,0.3,2.1,0.9,3.4,1.8c1.2,0.9,2.4,1.9,3.6,3.1c1.1,1.2,2.1,2.4,2.9,3.7c0.8,1.2,1.3,2.3,1.4,3.2c-4,0.6-8.1,2.5-12.4,5.8
			c-4.3,3.3-8.1,7.3-11.5,11.9c-3.5,4.6-6.3,9.6-8.5,14.9c-2.2,5.3-3.3,10.2-3.3,14.8c0,1.9,0.7,3.1,2.1,3.6
			c2.9-0.6,6.2-3.1,10.1-7.4c3.8-4.3,8.4-11.1,13.8-20.2c1-1.8,2.1-3.8,3.4-6c1.2-2.2,2.5-4.5,3.8-6.9c1.3-2.4,2.6-4.8,3.8-7.3
			C247.7,161.9,248.8,159.5,249.9,157.2z"/>
		<path class="st1" d="M268.5,208.2c0-4.4,1.1-10.6,3.2-18.5s5-17.2,8.8-27.8c6.2-16.9,12-31,17.5-42.2c5.4-11.3,10.8-20,16-26.3
			c1.2,0.2,2.7,0.7,4.4,1.5c1.7,0.8,3.5,1.7,5.2,2.6c1.7,1,3.2,1.9,4.6,2.9c1.4,1,2.2,1.8,2.6,2.4c-7.8,9.2-14.7,19.1-20.5,29.7
			c-5.9,10.6-11.3,22.8-16.2,36.5c-4.2,11.8-7.4,22.4-9.6,31.9c-2.2,9.5-3.3,17.3-3.3,23.6c0,1.7,0,2.8,0,3.2c0,0.4,0,0.8,0.1,1.2
			c-1.4-0.2-2.6-0.6-3.6-1c-1-0.5-1.7-1.1-2-1.8c-0.2-0.5-0.8-1.2-1.6-2.2c-0.9-1-1.7-1.7-2.4-2.2c-0.9-0.6-1.7-2.2-2.3-4.7
			C268.8,214.3,268.5,211.4,268.5,208.2z"/>
		<path class="st1" d="M303.9,208.2c0-4.4,1-10.6,3.1-18.5c2.1-8,5-17.2,8.9-27.8c6.2-16.9,12-31,17.5-42.2
			c5.4-11.3,10.8-20,16-26.3c1.2,0.2,2.7,0.7,4.4,1.5c1.7,0.8,3.5,1.7,5.2,2.6c1.7,1,3.2,1.9,4.6,2.9c1.3,1,2.2,1.8,2.6,2.4
			c-7.8,9.2-14.7,19.1-20.5,29.7c-5.9,10.6-11.3,22.8-16.2,36.5c-4.2,11.8-7.4,22.4-9.6,31.9c-2.2,9.5-3.3,17.3-3.3,23.6
			c0,1.7,0,2.8,0,3.2c0,0.4,0,0.8,0.2,1.2c-1.4-0.2-2.6-0.6-3.6-1c-1-0.5-1.6-1.1-1.9-1.8c-0.2-0.5-0.8-1.2-1.7-2.2
			c-0.9-1-1.7-1.7-2.4-2.2c-0.9-0.6-1.6-2.2-2.3-4.7C304.2,214.3,303.9,211.4,303.9,208.2z"/>
		<path class="st1" d="M356.6,223.1c-5.7-0.6-10.3-3.1-13.7-7.5c-3.4-4.4-5.1-10-5.1-16.8c0-4,0.6-8.1,1.8-12.5
			c1.2-4.3,2.9-8.5,5.1-12.5c2.2-4,4.8-7.9,7.8-11.5c3-3.6,6.2-6.7,9.8-9.3c5.5-4.1,10.6-6.2,15.4-6.2c3.2,1.7,6.3,5.3,9.5,10.7
			c0.5,0,0.9,0,1.4-0.1c0.4,0,0.8-0.1,1.3-0.1c5.3,0,8,4.7,8,14.1c0,6.3-1,12.3-3.1,17.9c-2.1,5.7-4.9,10.8-8.5,15.4
			c-3.7,4.6-8,8.5-13,11.6C368.1,219.5,362.6,221.8,356.6,223.1z M364.2,175.8c-1.7,2.3-3.3,4.8-4.8,7.5s-2.8,5.4-3.9,8.2
			c-1.1,2.8-2,5.4-2.6,8c-0.6,2.5-0.9,4.8-0.9,6.8c0,2.4,0.4,4.7,1.2,6.9c0.8,2.2,1.7,3.5,2.7,3.8c4.5-1,8.6-2.9,12.4-5.6
			c3.8-2.7,7-6.2,9.8-10.3c2.8-4.1,4.9-8.7,6.5-14c1.5-5.2,2.3-10.7,2.3-16.7c0-2.6-0.2-4.6-0.5-6.1s-0.8-2.8-1.5-3.9
			c-4.4,1.3-8.3,3.4-11.8,6.3C369.7,169.6,366.7,172.6,364.2,175.8z"/>
		<path class="st1" d="M361.8,299.2c0-1.1,0.4-2.1,1.1-3c0.7-0.9,1.5-1.8,2.5-2.7c2.2,2,4.1,3.5,5.6,4.6c1.5,1.1,3,2,4.4,2.7
			c1.4,0.7,2.8,1.2,4.2,1.4c1.5,0.2,3.2,0.3,5.2,0.3c9.5,0,18.5-2.5,27-7.5c8.6-5,16.6-12.2,24.2-21.7c7.5-9.5,14.4-21,20.6-34.7
			c6.2-13.7,11.6-29.1,16.4-46.4c-2.2,2.2-4.9,4.6-8.1,7.2c-3.2,2.6-6.5,5.1-10,7.5c-3.5,2.4-6.9,4.6-10.2,6.6
			c-3.4,2-6.2,3.5-8.6,4.4c-3.1-0.5-6-1.9-8.6-4c-2.6-2.1-5-4.7-7-7.8c-2-3.1-3.5-6.6-4.6-10.5c-1.1-3.9-1.6-8.1-1.6-12.4
			c0-7.1,1.3-14.4,4-21.8c2.6-7.5,6.1-14.8,10.5-22c4.4-7.2,9.5-14,15.4-20.3c5.9-6.4,12.2-11.9,18.8-16.7
			c6.6-4.7,13.4-8.5,20.2-11.3c6.8-2.8,13.5-4.2,20.1-4.2c6.4,0,11.1,1.3,14.3,4c3.2,2.6,5.5,7.1,7,13.5c-2-1.1-4.6-1.6-7.6-1.6
			c-4.4,0-9.4,1.7-15.2,5.2c-5.7,3.5-11.6,8-17.5,13.5c-5.9,5.6-11.8,11.9-17.6,19.1c-5.8,7.2-11,14.5-15.4,22
			c-4.5,7.5-8.1,14.7-10.9,21.8c-2.8,7.1-4.2,13.5-4.2,19.1c0,1.3,0.1,2,0.3,2.3c0.2,0.3,0.5,0.4,0.8,0.4c1.6,0,3.9-0.9,6.7-2.7
			c2.8-1.8,6-4.1,9.6-7c3.5-2.8,7.2-6.1,11.1-9.8c3.8-3.7,7.5-7.5,10.9-11.3c7.8-8.7,15-18.5,21.4-29.3
			c6.5-10.8,11.6-21.3,15.4-31.5c4.9,0.4,9.3,1.2,13.1,2.5c3.8,1.3,6.5,2.6,7.9,4.1c-6.2,14.2-11.2,26.1-14.9,35.8
			c-3.7,9.6-7,18.2-9.7,25.7c-4.9,13.1-9.5,25.1-13.8,35.9c-4.3,10.8-8.6,20.8-13.1,30c-4.5,9.2-9.3,17.7-14.5,25.7
			c-5.2,7.9-11.1,15.5-17.6,22.8c-3.1,3.5-6.6,6.5-10.5,9.1c-3.9,2.6-7.9,4.9-12,6.7c-4.1,1.8-8.1,3.2-12,4.1
			c-3.9,0.9-7.5,1.4-10.8,1.4c-4.4,0-8.8-0.5-13.4-1.5c-4.5-1-8.8-2.4-12.7-4.1c-3.9-1.7-7.3-3.7-10.2-6
			C365.2,304.1,363.1,301.7,361.8,299.2z"/>
		<path class="st1" d="M524.3,214.8c0.5-2.9,1.4-6.7,2.6-11.5c1.2-4.7,2.7-9.8,4.4-15.2c1.7-5.3,3.5-10.7,5.4-16.1
			c1.9-5.4,3.8-10.2,5.6-14.5c1.3-3.1,2.4-5.5,3.5-7.3c1-1.7,2.1-3.2,3.3-4.4c1.4,0.2,2.8,0.6,4.3,1c1.5,0.5,2.9,1.1,4.4,1.8
			c1.4,0.7,2.6,1.4,3.8,2.2c1.1,0.8,1.9,1.5,2.5,2.2c-2.7,3.2-5.1,6.9-7.1,10.9c-2.1,4.1-4.1,9.4-6.2,15.8
			c5.4-4.8,10.2-9.4,14.3-13.8c4.1-4.4,8-9.3,11.6-14.7c0.6-0.5,1.7-0.8,3.2-0.8c1.4,0,2.8,0.2,4.1,0.7c1.3,0.4,2.2,1.1,2.7,1.9
			c-1.8,4.8-2.7,9.6-2.7,14.3c0,4.4,0.6,7.7,1.9,9.9c-0.1,0.6-0.8,1.8-2,3.5c-1.3,1.7-2.6,3.3-4.1,4.8c-2.7-1.4-5.1-3.3-7.2-5.8
			c-2.1-2.4-3.7-5.1-4.7-8c-4.7,3.3-8.7,6.5-12,9.7c-3.3,3.2-6.1,6.7-8.5,10.5c-2.4,3.9-4.3,8.3-6,13.3c-1.6,5-3.2,11-4.7,17.8
			c-0.9-0.1-2-0.4-3.2-1c-1.3-0.6-2.5-1.2-3.8-2c-1.3-0.8-2.4-1.6-3.4-2.5C525.2,216.5,524.6,215.6,524.3,214.8z"/>
		<path class="st1" d="M640.1,157.2c1,0,2.2,0.2,3.5,0.5c1.3,0.4,2.6,0.8,3.7,1.3c1.1,0.6,2,1.1,2.8,1.7c0.8,0.6,1.1,1.2,1.1,1.6
			c-2,4.2-3.9,8.4-5.6,12.7c-1.7,4.3-3.1,8.3-4.3,12.2c-1.2,3.9-2.1,7.6-2.8,11c-0.7,3.4-1,6.4-1,8.8c0,2.8,0.3,5.1,0.9,7
			c0.6,1.9,1.6,3.2,3,4c-1.2,0.8-2.8,1.4-4.7,2c-1.9,0.5-3.6,0.8-5.1,0.8c-5.4,0-8.1-3.7-8.1-11.1c0-5.7,1.9-13.5,5.7-23.4
			c-2,4.6-4.3,8.9-6.9,12.9c-2.6,4-5.3,7.6-7.9,10.7c-2.7,3.1-5.4,5.6-8.2,7.5c-2.8,1.9-5.3,3.1-7.6,3.5c-3.7,0-6.7-1.7-9-5
			c-2.3-3.4-3.5-7.7-3.5-12.9c0-5.6,1.2-11.5,3.6-17.8c2.4-6.2,5.5-12,9.2-17.3c3.8-5.3,7.8-9.8,12.2-13.3c4.4-3.6,8.6-5.3,12.8-5.3
			c1,0.3,2.1,0.9,3.4,1.8c1.2,0.9,2.4,1.9,3.6,3.1c1.1,1.2,2.1,2.4,2.9,3.7c0.8,1.2,1.2,2.3,1.3,3.2c-4,0.6-8.1,2.5-12.4,5.8
			c-4.3,3.3-8.1,7.3-11.5,11.9c-3.5,4.6-6.3,9.6-8.5,14.9c-2.2,5.3-3.3,10.2-3.3,14.8c0,1.9,0.7,3.1,2.1,3.6c2.9-0.6,6.2-3.1,10-7.4
			c3.8-4.3,8.4-11.1,13.8-20.2c1-1.8,2.1-3.8,3.4-6c1.2-2.2,2.5-4.5,3.8-6.9c1.3-2.4,2.6-4.8,3.8-7.3
			C637.8,161.9,639,159.5,640.1,157.2z"/>
		<path class="st1" d="M647.9,267.5c-1.4-0.4-2.2-1.9-2.4-4.5c-0.4-1.3-0.7-2.9-0.8-4.7s-0.2-3.9-0.2-6.2c0-2.1,0.3-5,1-8.6
			c0.7-3.7,1.7-7.8,2.9-12.4c1.2-4.6,2.8-9.6,4.6-14.9s3.8-10.8,6-16.3c2.7-6.9,5-12.9,7-17.9c2-5,3.7-9.4,5-13.1
			c1.3-3.7,2.4-6.8,3.3-9.1c0.8-2.4,1.5-4.4,2-6.2c0.4-1.2,1-2.6,1.8-4.3c0.8-1.7,1.7-3.4,2.8-5.2c1-1.7,2.1-3.4,3.2-4.9
			c1.1-1.5,2.1-2.7,3-3.5c3.5,0.5,6.8,1.4,9.9,2.7c3.1,1.3,5,2.5,5.7,3.8c-1.4,1.3-3,3.3-4.8,6.1c-1.8,2.8-3.6,5.8-5.3,9
			c-1.7,3.3-3.3,6.6-4.7,10c-1.4,3.4-2.5,6.4-3.1,9c1-1.7,2.3-3.5,3.9-5.5c1.6-2,4-4.7,7.4-8.3c3.7-3.8,7.2-6.7,10.4-8.8
			c3.2-2,6.1-3.1,8.5-3.1c3.8,0,6.9,1.1,9.4,3.2c2.4,2.1,3.7,4.8,3.7,8.1c0,7.2-1.2,14.3-3.6,21.4c-2.4,7-5.8,13.4-10.3,19.1
			c-1.7,2.2-3.7,4.3-6,6.3c-2.3,2-4.7,3.8-7.2,5.3c-2.5,1.6-5,2.8-7.4,3.7c-2.4,0.9-4.6,1.3-6.4,1.3c-1.8,0-3.4-0.4-4.7-1.1
			c-1.3-0.8-2.3-1.7-2.8-2.8c3.9-2.3,7.7-5.5,11.4-9.6c3.7-4.1,7.1-8.8,10.3-14.2c3.1-5.3,5.9-11.1,8.3-17.3
			c2.3-6.2,4.1-12.5,5.3-18.9c-3.8,2-7.2,4.2-10.3,6.5c-3.1,2.4-6.1,5.4-9.1,9.2c-3.6,4.4-6.5,8-8.5,10.7s-3.8,5-5.2,6.9
			c-1.4,1.9-2.5,3.7-3.3,5.3c-0.9,1.6-1.8,3.7-2.8,6.1c-1.4,3.2-3,7.4-4.9,12.7c-1.9,5.3-3.8,11.1-5.7,17.6
			c-2,6.5-3.9,13.4-5.8,20.8c-2,7.4-3.8,14.7-5.6,22c-1.1-0.2-2.1-1-2.9-2.4c-0.8-0.9-1.4-1.6-1.7-2
			C648.8,268,648.4,267.7,647.9,267.5z"/>
		<path class="st1" d="M733.4,215.3c0-3.5,0.3-7.6,1-12.4c0.7-4.7,1.7-9.8,3.1-15.2c1.3-5.4,2.9-11,4.8-17
			c1.8-5.9,3.9-11.8,6.2-17.7c2-5.3,4.3-10.7,7-16.1c2.6-5.4,5.5-10.7,8.6-15.9c3.1-5.2,6.3-10.1,9.7-14.9c3.3-4.7,6.7-9,10.1-12.9
			c1.6,0,3.3,0.2,5.2,0.6c1.8,0.4,3.6,0.9,5.4,1.6c1.7,0.7,3.3,1.4,4.8,2.3c1.4,0.9,2.6,1.8,3.5,2.7c-7.5,7.7-14.3,15.5-20.3,23.3
			c-6,7.9-10.8,15.2-14.3,22.1c-1.9,3.8-3.6,7.4-5.2,10.7c-1.6,3.3-3,6.6-4.3,9.8c-1.3,3.3-2.5,6.5-3.5,9.8c-1,3.3-2,6.7-2.9,10.3
			c19.2-24.5,33.5-36.8,42.8-36.8c2.6,0,5.4,0.9,8.4,2.6c3,1.7,5.6,4,8,6.9c-3.1,3.4-6.3,7.5-9.6,12.3c-3.3,4.8-6.3,9.6-9.1,14.5
			c-2.8,4.9-5,9.4-6.8,13.5c-1.8,4.2-2.6,7.2-2.6,9.2c0,1,0.2,1.7,0.5,2c0.3,0.4,0.9,0.5,2,0.5c1.5,0,2.7-0.2,3.6-0.6
			c0.9-0.4,1.4-0.6,1.7-0.6c0.5,0.8,0.8,1.3,0.9,1.6c0.1,0.3,0.2,0.6,0.2,0.8c0,0.4-0.6,1-1.8,1.7c-1.2,0.8-2.6,1.5-4.3,2.3
			s-3.3,1.4-4.9,2c-1.6,0.6-2.8,0.9-3.6,0.9c-1,0-2-0.3-3-0.8c-1-0.6-1.9-1.3-2.6-2.2s-1.4-1.9-1.8-3c-0.4-1.1-0.7-2.3-0.7-3.5
			c0-1.5,0.4-3.7,1.3-6.7c0.8-2.9,2-6.4,3.5-10.3c1.5-3.9,3.3-8.3,5.4-13c2.1-4.7,4.3-9.5,6.8-14.4c0-0.4-0.2-0.6-0.6-0.6
			c-0.3,0-1.1,0.4-2.3,1.2c-1.3,0.8-2.4,1.6-3.5,2.4c-3.6,2.7-7.2,6-10.9,10c-3.7,4-7.2,8.3-10.6,13c-3.5,4.7-6.7,9.7-9.8,14.9
			c-3.1,5.3-5.7,10.5-7.9,15.8c-0.3,0.7-0.8,1.4-1.4,2c-0.6,0.6-1.1,0.9-1.5,0.9c-0.3,0-0.7-0.4-1.3-1c-0.6-0.7-1.1-1.6-1.5-2.6
			c-0.5-1.1-0.9-2.1-1.3-3.2C733.6,217,733.4,216.1,733.4,215.3z"/>
		<path class="st1" d="M811.2,207.8c0-0.9,0.1-2,0.2-3.4c0.2-1.4,0.4-3.2,0.8-5.4c0.4-2.3,0.9-5,1.6-8.2c0.6-3.2,1.5-7,2.5-11.5
			c0.2-1,0.6-2.6,1.4-4.8c0.7-2.2,1.6-4.5,2.8-7c1.1-2.4,2.5-4.8,4.2-7.1c1.7-2.3,3.6-4,5.9-5.1c1.7,0.4,3.9,1.4,6.8,3.1
			c2.8,1.7,5.2,3.9,7.2,6.8c-2.3,2.6-4.2,5.2-5.8,7.8c-1.6,2.6-3,5.3-4.2,8.1c-1.3,2.8-2.4,5.7-3.5,8.7s-2.2,6.1-3.5,9.5
			c-1.1,2.8-2.1,5.7-3,8.6c-0.9,3-1.4,5.5-1.5,7.7c0,1.8,0,3.1-0.1,3.8c-0.1,0.8-0.3,1.1-0.8,1.1c-0.4,0-1.2-0.3-2.4-0.8
			c-1.2-0.5-2.4-1.3-3.7-2.3c-1.3-1-2.4-2.4-3.4-4C811.7,211.9,811.2,210,811.2,207.8z M839.9,142.7c0-0.6,0.2-1.5,0.5-2.7
			c-0.5-0.5-0.9-1.2-1.3-2.3c-0.4-1-0.5-1.9-0.5-2.7c0-0.9,0.1-2.1,0.4-3.7c0.2-1.5,0.6-3.2,1-5c0.4-1.8,0.9-3.7,1.5-5.6
			c0.6-2,1.2-3.7,1.8-5.3c1.2,0,2.7,0.3,4.4,1c1.7,0.7,3.5,1.5,5.3,2.6c1.8,1,3.4,2.2,4.9,3.4c1.5,1.3,2.6,2.4,3.5,3.5
			c-1.1,1.1-2.5,2.6-4.3,4.6c-1.8,2-3.6,4-5.3,6.1c-1.7,2.2-3.3,4.2-4.7,6.1c-1.4,1.9-2.3,3.3-2.7,4c-1.2-0.2-2.3-0.7-3.1-1.6
			C840.3,144.3,839.9,143.5,839.9,142.7z"/>
		<path class="st1" d="M847.4,191.4c0-5.7,1.2-11.2,3.5-16.6c2.3-5.3,5.4-10.1,9.3-14.3c3.8-4.1,8.3-7.5,13.2-10
			c5-2.5,10.1-3.8,15.4-3.8c5.2,0,9.2,1.3,12,3.9c2.8,2.6,4.2,6.3,4.2,11.1c0,2.3-0.3,4.5-1,6.7c-0.7,2.2-1.5,4.1-2.5,5.8
			c-1.1,1.7-2.3,3.1-3.7,4.1c-1.4,1.1-2.8,1.6-4.2,1.6c-1.2,0-2.4-0.4-3.7-1.1c-1.3-0.8-2.3-1.7-3.1-2.9c6.7-6.1,10-11.6,10-16.7
			c0-2.9-1.2-4.3-3.5-4.3c-2,0-4.5,1-7.5,2.8c-3,1.9-5.9,4.4-8.7,7.5c-4.3,4.8-7.6,10.1-9.8,16c-2.3,5.8-3.4,12-3.4,18.4
			c0,8.1,1.8,13,5.4,14.5c1.5-0.2,3.2-0.6,5.3-1.3c2-0.7,4.1-1.6,6.5-2.8c2.3-1.1,4.7-2.5,7.1-4c2.4-1.5,4.8-3.1,7.1-4.8
			c0.4,0.3,0.8,0.8,1,1.4c0.3,0.6,0.5,1.2,0.5,1.6c-1.7,2.1-3.7,4.2-5.9,6.2c-2.2,2-4.5,3.8-6.9,5.5c-2.4,1.7-4.7,3-7,4.2
			c-2.3,1.1-4.2,1.9-5.9,2.2c-3.3-0.3-6.4-1.3-9.3-3.1c-2.9-1.7-5.4-4-7.6-6.8c-2.2-2.8-3.9-6-5.1-9.6
			C848,199.1,847.4,195.3,847.4,191.4z"/>
	</g>
</g>
</svg>
