<?xml version="1.0" encoding="utf-8"?>
<!-- Generator: Adobe Illustrator 24.1.3, SVG Export Plug-In . SVG Version: 6.00 Build 0)  -->
<svg version="1.1" id="Ebene_1" xmlns:sketch="http://www.bohemiancoding.com/sketch/ns"
	 xmlns="http://www.w3.org/2000/svg" xmlns:xlink="http://www.w3.org/1999/xlink" x="0px" y="0px" viewBox="0 0 60 60"
	 style="enable-background:new 0 0 60 60;" xml:space="preserve">
<style type="text/css">
	.st0{fill-rule:evenodd;clip-rule:evenodd;}
</style>
<desc></desc>
<g id="black">
	<g id="slice" transform="translate(-700.000000, -600.000000)">
	</g>
	<g id="behance" transform="translate(12.000000, 18.000000)">
		<path class="st0" d="M27.2-4.9v3.8h15.4v-3.8H27.2z M-11.7-6.9L6-6.6c0,0,9.8-0.5,11.1,7.2s-4.9,9.5-4.9,9.5s7.7,1.8,6.7,10.9
			c-1,9.1-11.6,9.1-11.6,9.1h-19V-6.9z M-3.6,7.8h7.3c0.4,0,1.8,0,2.7-0.3c0.4-0.1,1.3-0.4,1.9-0.9c0.2-0.2,0.7-0.9,1-1.5
			c0.2-0.7,0.3-1.5,0.3-1.9c0-0.5-0.1-1.1-0.3-1.6C9,1.1,8.8,0.7,8.3,0.4C7.9,0,7.3-0.3,6.7-0.5S5.2-0.8,4.4-0.8h-8
			C-3.6-0.8-3.6,7.8-3.6,7.8z M-3.6,23.4h8c0.5,0,1.9,0,3-0.3c0.4-0.1,1.4-0.4,2.1-1c0.2-0.2,0.8-0.9,1-1.8c0.3-0.8,0.3-1.6,0.3-2.1
			c0-0.7-0.1-1.2-0.3-1.8c-0.2-0.5-0.5-1-1-1.4c-0.4-0.4-1.1-0.7-1.8-1c-0.7-0.2-1.5-0.3-2.5-0.3h-8.8C-3.6,13.7-3.6,23.4-3.6,23.4z
			 M28.8,18.5c0,0.2,0,5.5,4.4,6.7c5,1.4,7.3-2.7,7.5-3.3h6.6C47,22.6,44.4,33.5,29.8,30c-9-2.2-8.6-12.8-8.6-13.7
			c0-0.9,0-5.3,3.6-9.4s8.8-4.2,9.8-4.2s6.4,0,9.6,3.6c4.3,4.7,3.4,12.2,3.4,12.2H28.8z M40.4,13.7c0-0.9-0.2-1.6-0.5-2.3
			c-0.3-0.7-0.7-1.3-1.2-1.9c-0.5-0.5-1.1-0.9-1.8-1.2c-0.7-0.3-1.4-0.4-2.3-0.4c-0.8,0-1.5,0.1-2.2,0.4c-0.7,0.3-1.2,0.8-1.8,1.2
			c-0.5,0.5-0.9,1.1-1.2,1.9c-0.3,0.8-0.4,1.4-0.5,2.2h11.5V13.7z"/>
	</g>
</g>
</svg>
